<svg enable-background="new 0 0 28 16" height="16" viewBox="0 0 28 16" width="28" xmlns="http://www.w3.org/2000/svg"><g fill="#fff"><path d="m4.81 6.199c.265-.285.408-.835.143-1.366-.265-.55-.856-.794-1.182-.448-.327.346-.429.958-.103 1.509.306.53.877.591 1.142.305z"/><path d="m27.946 12.407c-.081-.163-.284-.223-.388 0-.51 1.102-1.366 2.325-2.731 2.835.734-.489.876-1.346.918-2.14.062-1.407-.327-2.997-.184-4.873.082-.143.142-.265.224-.387.267-.469.368-.693.163-.897-.184-.183-.651-.102-1.102.306-.428.387-.631.775-.732 1.569-.591 1.041-1.509 2.366-2.345 3.506-.021-.163-.021-.324-.042-.488-.02-.326-.183-.407-.428-.204-.481.397-.651 1.168-.55 1.91-.504.716-1.179 1.362-2.078 1.698.732-.489.876-1.346.916-2.14.062-1.407-.324-2.997-.184-4.873.082-.143.144-.265.226-.387.265-.469.366-.693.163-.897-.184-.183-.653-.102-1.101.306-.429.387-.634.775-.735 1.569-.591 1.041-1.509 2.366-2.345 3.506-.02-.163-.02-.324-.04-.488-.021-.326-.183-.407-.428-.204-.446.367-.628 1.054-.573 1.741-.855 1.05-2.041 2.046-3.382 2.03-1.203-.02-1.631-1.712-.509-4.017.917-1.854 2.446-3.159 2.793-2.874.285.224-.327 1.1-.551 1.834-.286.917 0 1.528.489 1.773.266.144.347.082.428-.163.408-1.101 1.223-2.181.795-3.038-.245-.469-.57-.794-1.121-1.121-1.02-.612-3.079.489-4.384 3.058-.488.969-.675 1.923-.59 2.74-.688 1.052-1.514 1.857-2.202 1.826-.856-.04-1.081-1.304-.408-2.793.774-1.712 1.937-3.69 2.732-5.056.51-.081 1.142-.142 1.59-.081.306 0 .387-.143.245-.388-.164-.265-.469-.632-1.265-.611.49-1.06.49-1.733.265-2.304-.102-.245-.306-.266-.489 0-.347.448-.917 1.406-1.55 2.528-.55.062-1.121.102-1.692.082-.303-.018-.425.124-.222.41.164.225.632.53 1.326.53-.877 1.611-1.733 3.323-2.162 4.343-.059.142-.088.271-.133.406-.032.021-.062.053-.09.104-.612 1.405-1.733 2.751-2.65 2.793-.652.04-.693-.755-.204-1.937.428-1.02 1.285-2.406 1.712-3.303.489-1.02.327-1.897.021-2.223-.163-.183-.305-.122-.489.123-.754 1.06-2.1 3.465-2.609 4.953-.571 1.672-.184 2.978 1.366 2.978.987 0 2.08-.642 2.753-1.633.199 1.011.934 1.607 1.771 1.633 1.086.04 2.037-.739 2.635-1.44.401.887 1.243 1.46 2.482 1.44 1.315-.017 2.669-.742 3.524-1.697.027.063.05.129.082.188.694 1.265 1.835 1.569 3.018 1.529 1.188-.051 2.328-.588 3.129-1.554.004.008.007.017.011.024.692 1.265 1.835 1.569 3.018 1.529 1.447-.062 2.833-.836 3.609-2.244.346-.63.366-1.159.284-1.345zm-10.58 2.835c-.673.203-1.264-.631-1.57-1.815.776-1.101 1.53-2.222 2.122-3.302.081 1.632.386 4.833-.552 5.117zm6.157 0c-.673.203-1.265-.631-1.57-1.815.773-1.101 1.528-2.222 2.119-3.302.082 1.632.389 4.833-.549 5.117z"/></g></svg>
