<svg enable-background="new 0 0 24 24" height="24" viewBox="0 0 24 24" width="24" xmlns="http://www.w3.org/2000/svg"><path d="m17.388 4.271c1.383 0 1.947.194 2.628.903 1.11 1.156 1.484 1.881 1.484 2.872 0 1.07-.489 2.127-1.454 3.143l-8.192 7.781-8.191-7.78c-.783-.83-1.163-1.859-1.163-3.144 0-1.204.312-1.956 1.194-2.875.677-.707 1.241-.9 2.626-.9 1.24 0 2.027.27 2.633.903l1.458 1.519 1.319 1.375 1.438-1.251 1.743-1.519.174-.152.136-.187c.299-.416.611-.688 2.167-.688m0-2c-1.749 0-2.915.304-3.79 1.519l-1.744 1.519-1.458-1.519c-1.161-1.215-2.618-1.519-4.076-1.519-1.744 0-2.91.304-4.071 1.519-1.166 1.214-1.749 2.429-1.749 4.256 0 1.822.583 3.345 1.749 4.559l9.605 9.123 9.605-9.123c1.166-1.214 2.041-2.737 2.041-4.559 0-1.828-.875-3.042-2.041-4.257-1.166-1.214-2.322-1.518-4.071-1.518z" fill="#fff"/></svg>
