<svg enable-background="new 0 0 44 36" height="36" viewBox="0 0 44 36" width="44" xmlns="http://www.w3.org/2000/svg"><path d="m2.2 2.116c-1.65 1.589-2.2 3.706-2.2 5.823s.55 4.236 2.2 5.824 3.85 2.646 6.05 2.646 3.3.53 3.85 2.118c0 1.588 0 3.706-.55 5.823-1.1 2.117-2.75 3.706-4.4 5.295-2.2 1.589-4.95 2.648-7.15 2.648v3.706c4.4 0 8.8-2.118 12.1-5.824 3.3-3.176 5.5-7.411 6.6-12.176 1.1-5.294.55-9.529-.55-12.706-2.2-3.706-5.5-5.294-9.9-5.294-2.2 0-4.4.529-6.05 2.117zm24.2 0c-1.65 1.589-2.2 3.706-2.2 5.823s.55 4.236 2.2 5.824c1.1 1.588 3.3 2.646 6.05 2.646 1.649 0 2.75.53 3.3 2.118s.55 3.706-.55 5.823c-1.101 2.117-2.2 3.706-3.851 5.295-2.199 1.588-4.949 2.646-7.149 2.646v3.706c4.399 0 8.25-2.118 12.1-5.824 3.3-3.176 5.5-7.411 6.601-12.176 1.099-5.292.549-9.527-1.101-12.704-2.2-3.706-4.95-5.294-9.35-5.294-2.75 0-4.95.529-6.05 2.117z" fill="currentColor"/></svg>
