<svg enable-background="new 0 0 14 13" height="13" viewBox="0 0 14 13" width="14" xmlns="http://www.w3.org/2000/svg"><path d="m14 1.444c-.363.826-.909 1.238-1.455 1.857v.413c0 .826 0 1.651-.182 2.477-.363 1.031-.726 1.856-1.091 2.475-.546.826-1.091 1.65-1.636 2.27-.729.619-1.455 1.032-2.364 1.445-.909.412-1.817.619-2.909.619-1.454 0-2.908-.619-4.363-1.65.182.205.545.205.727.205 1.273 0 2.545-.619 3.636-1.443-.727 0-1.272-.207-1.818-.619-.363-.414-.727-1.033-.909-1.652h.545s.545 0 .727 0c-.726-.206-1.272-.619-1.636-1.238-.363-.619-.727-1.238-.727-2.063.546.206.91.412 1.455.412-.545-.206-.728-.619-1.091-1.238-.182-.413-.364-.825-.364-1.444s.182-1.238.546-1.65c.727 1.03 1.454 1.856 2.545 2.475 1.091.412 2.182.825 3.273.825 0-.207 0-.413 0-.619 0-1.032.182-1.651.728-2.27.545-.619 1.271-1.031 2.181-1.031.727 0 1.454.412 2 1.031.727-.206 1.272-.412 1.818-.825-.183.825-.546 1.444-1.273 1.857.545 0 1.091-.206 1.637-.619z" fill="currentColor"/></svg>
